<svg xmlns="http://www.w3.org/2000/svg" viewBox="0 0 24 24" fill="currentColor" width="128" height="128">
  <path d="M13.378 2.012a3.5 3.5 0 0 0-2.756 0L8.5 2.866l-1.122-.854a3.5 3.5 0 0 0-2.756 0L3.5 2.866 2.378 2.012a3.5 3.5 0 0 0-2.756 0L.5 2.866v1.268l.122.854a3.5 3.5 0 0 0 0 2.756L.5 8.5v1.268l.122.854a3.5 3.5 0 0 0 0 2.756L.5 13.5v1.268l.122.854a3.5 3.5 0 0 0 2.756 0L3.5 16.866l1.122.854a3.5 3.5 0 0 0 2.756 0L8.5 16.866l1.122.854a3.5 3.5 0 0 0 2.756 0L13.5 16.866l1.122.854a3.5 3.5 0 0 0 2.756 0L18.5 16.866l1.122.854a3.5 3.5 0 0 0 2.756 0L23.5 16.866v-1.268l-.122-.854a3.5 3.5 0 0 0 0-2.756L23.5 11.5v-1.268l-.122-.854a3.5 3.5 0 0 0 0-2.756L23.5 5.866V4.598l-.122-.854a3.5 3.5 0 0 0-2.756 0L20.5 4.598l-1.122-.854a3.5 3.5 0 0 0-2.756 0L15.5 4.598l-1.122-.854a3.5 3.5 0 0 0-2.756 0zM12 8a4 4 0 1 1 0 8 4 4 0 0 1 0-8zm-4.5 4a1.5 1.5 0 1 0 0 3 1.5 1.5 0 0 0 0-3zm9 0a1.5 1.5 0 1 0 0 3 1.5 1.5 0 0 0 0-3z"/>
</svg>